<?xml version="1.0" encoding="utf-8"?>
<!-- Generator: Adobe Illustrator 25.2.3, SVG Export Plug-In . SVG Version: 6.00 Build 0)  -->
<svg version="1.2" baseProfile="tiny" id="레이어_1"
	 xmlns="http://www.w3.org/2000/svg" xmlns:xlink="http://www.w3.org/1999/xlink" x="0px" y="0px" viewBox="0 0 32 32"
	 overflow="visible" xml:space="preserve">
<g>
	<circle fill="#F3BA2F" cx="16" cy="16" r="16"/>
	<g>
		<path fill="#FFFFFF" d="M12.1,14.4c-0.1-0.1-0.2-0.1-0.3-0.2c-0.6-0.6-1.1-1.1-1.7-1.7c-0.2-0.2-0.2-0.4,0-0.6
			c1.8-1.8,3.7-3.7,5.5-5.5c0.3-0.3,0.4-0.2,0.7,0c1.8,1.8,3.7,3.7,5.5,5.5c0.3,0.3,0.3,0.4,0,0.7c-0.6,0.5-1.1,1.1-1.6,1.6
			c-0.3,0.3-0.4,0.2-0.7,0c-1-1.1-2.1-2.1-3.1-3.1c-0.3-0.3-0.5-0.3-0.9,0c-1,1-2,2.1-3.1,3.1C12.4,14.2,12.3,14.3,12.1,14.4z"/>
		<path fill="#FFFFFF" d="M16,25.9c-0.2,0-0.2-0.1-0.3-0.2c-1.8-1.8-3.6-3.6-5.4-5.4c-0.3-0.3-0.3-0.5,0-0.8c0.5-0.5,1-1,1.5-1.5
			c0.3-0.4,0.6-0.3,0.9,0c1,1,2,2,3,3c0.4,0.4,0.6,0.3,0.9,0c1-1,2-2,3-3c0.3-0.4,0.6-0.3,0.9,0c0.5,0.5,1,1,1.5,1.5
			c0.3,0.2,0.3,0.4,0,0.7c-1.8,1.8-3.7,3.7-5.5,5.5C16.2,25.8,16.1,25.9,16,25.9z"/>
		<path fill="#FFFFFF" d="M18.2,15.9c0,0.2-0.1,0.3-0.2,0.4c-0.6,0.6-1.1,1.1-1.7,1.7c-0.2,0.2-0.4,0.2-0.6,0
			c-0.6-0.6-1.1-1.1-1.7-1.7c-0.2-0.2-0.2-0.4,0-0.7c0.6-0.6,1.1-1.1,1.7-1.7c0.2-0.2,0.3-0.3,0.5-0.1c0.6,0.6,1.2,1.2,1.8,1.8
			C18.1,15.8,18.2,15.9,18.2,15.9z"/>
		<path fill="#FFFFFF" d="M8.2,13.8c0.2,0,0.3,0.1,0.4,0.2c0.6,0.5,1.1,1.1,1.7,1.6c0.2,0.2,0.2,0.4,0,0.6c-0.6,0.6-1.1,1.1-1.7,1.7
			c-0.2,0.2-0.4,0.2-0.6,0c-0.6-0.6-1.1-1.1-1.7-1.7c-0.2-0.2-0.3-0.4,0-0.6C6.8,15.1,7.4,14.6,8,14C8.1,13.9,8.2,13.9,8.2,13.8z"/>
		<path fill="#FFFFFF" d="M23.7,18.2c-0.2,0-0.3-0.1-0.3-0.2c-0.6-0.6-1.1-1.1-1.7-1.7c-0.3-0.3-0.2-0.5,0-0.7
			c0.5-0.5,1.1-1,1.6-1.6c0.3-0.3,0.5-0.3,0.7,0c0.5,0.6,1.1,1.1,1.7,1.7c0.2,0.1,0.3,0.3,0.1,0.5c-0.6,0.6-1.3,1.3-1.9,1.9
			C23.8,18.1,23.8,18.2,23.7,18.2z"/>
	</g>
</g>
</svg>
