<svg width="40" height="40" viewBox="0 0 40 40" fill="none" xmlns="http://www.w3.org/2000/svg">
<circle cx="20" cy="20" r="19.1697" fill="#070519" stroke="white" stroke-width="1.66058"/>
<g clip-path="url(#clip0_3205_23888)">
<path d="M21.0456 20.264L29.2753 28.4335C33.6003 23.8459 33.6003 16.6822 29.2753 12.0946" fill="url(#paint0_linear_3205_23888)"/>
<path d="M20.4446 20.8048L12.3354 28.8538L20.4446 32.2177L28.5538 28.8538" fill="url(#paint1_linear_3205_23888)"/>
<path d="M20.1448 19.9641L28.5551 11.614L20.8048 8.43079L13.1159 26.993L20.1448 19.9641Z" fill="url(#paint2_linear_3205_23888)"/>
<path d="M8.43078 20.2639C8.42476 23.3026 9.5858 26.2269 11.6742 28.4334L19.7232 9.03052" fill="url(#paint3_linear_3205_23888)"/>
</g>
<defs>
<linearGradient id="paint0_linear_3205_23888" x1="21.0456" y1="20.398" x2="34.4169" y2="20.398" gradientUnits="userSpaceOnUse">
<stop stop-color="#6D1812"/>
<stop offset="1" stop-color="#A61D13"/>
</linearGradient>
<linearGradient id="paint1_linear_3205_23888" x1="12.3354" y1="26.6048" x2="31.2366" y2="26.6048" gradientUnits="userSpaceOnUse">
<stop stop-color="#6D1812"/>
<stop offset="1" stop-color="#A61D13"/>
</linearGradient>
<linearGradient id="paint2_linear_3205_23888" x1="13.1159" y1="17.864" x2="31.1089" y2="17.864" gradientUnits="userSpaceOnUse">
<stop stop-color="#6D1812"/>
<stop offset="1" stop-color="#A61D13"/>
</linearGradient>
<linearGradient id="paint3_linear_3205_23888" x1="8.43076" y1="18.891" x2="21.5911" y2="18.891" gradientUnits="userSpaceOnUse">
<stop stop-color="#6D1812"/>
<stop offset="1" stop-color="#A61D13"/>
</linearGradient>
<clipPath id="clip0_3205_23888">
<rect width="24.0879" height="23.7881" fill="white" transform="translate(8.43079 8.43079)"/>
</clipPath>
</defs>
</svg>
