<svg width="40" height="40" viewBox="0 0 40 40" fill="none" xmlns="http://www.w3.org/2000/svg">
<circle cx="20" cy="20" r="19.17" fill="#070519" stroke="white" stroke-width="1.66"/>
<path d="M30.9495 9.23132L21.8927 15.9579L23.5675 11.9893L30.9495 9.23132Z" fill="#A61D13" stroke="#A61D13" stroke-linecap="round" stroke-linejoin="round"/>
<path d="M10.0414 9.23132L19.0254 16.0217L17.4325 11.9893L10.0414 9.23132ZM27.6908 24.8236L25.2787 28.5191L30.4397 29.9391L31.9234 24.9055L27.6908 24.8236ZM9.08569 24.9055L10.5603 29.9391L15.7213 28.5191L13.3092 24.8236L9.08569 24.9055Z" fill="#A61D13" stroke="#A61D13" stroke-linecap="round" stroke-linejoin="round"/>
<path d="M15.43 18.5794L13.9918 20.7548L19.1164 20.9824L18.9344 15.4755L15.43 18.5794ZM25.5609 18.5794L22.011 15.4117L21.8926 20.9824L27.0081 20.7548L25.5609 18.5794ZM15.7213 28.5191L18.7978 27.0172L16.14 24.9419L15.7213 28.5191ZM22.193 27.0172L25.2787 28.5191L24.8509 24.9419L22.193 27.0172Z" fill="#A61D13" stroke="#A61D13" stroke-linecap="round" stroke-linejoin="round"/>
<path d="M25.2788 28.5191L22.1931 27.0172L22.4388 29.0288L22.4115 29.8753L25.2788 28.5191ZM15.7213 28.5191L18.5885 29.8753L18.5703 29.0288L18.7979 27.0172L15.7213 28.5191Z" fill="#D7B3B3" stroke="#D7B3B3" stroke-linecap="round" stroke-linejoin="round"/>
<path d="M18.634 23.613L16.0671 22.8575L17.8785 22.0292L18.634 23.613ZM22.3568 23.613L23.1123 22.0292L24.9328 22.8575L22.3568 23.613Z" fill="#233447" stroke="#233447" stroke-linecap="round" stroke-linejoin="round"/>
<path d="M15.7213 28.5192L16.1582 24.8236L13.3092 24.9055L15.7213 28.5192ZM24.8418 24.8236L25.2788 28.5192L27.6909 24.9055L24.8418 24.8236ZM27.0082 20.7549L21.8927 20.9824L22.366 23.613L23.1215 22.0292L24.942 22.8575L27.0082 20.7549ZM16.0672 22.8575L17.8877 22.0292L18.6341 23.613L19.1165 20.9824L13.9919 20.7549L16.0672 22.8575Z" fill="#D31919" stroke="#D31919" stroke-linecap="round" stroke-linejoin="round"/>
<path d="M13.9918 20.7549L16.14 24.942L16.0672 22.8575L13.9918 20.7549ZM24.9419 22.8575L24.8509 24.942L27.0081 20.7549L24.9419 22.8575ZM19.1164 20.9824L18.634 23.613L19.2348 26.7169L19.3713 22.63L19.1164 20.9824ZM21.8926 20.9824L21.6469 22.6209L21.7561 26.7169L22.366 23.613L21.8926 20.9824Z" fill="#DC2020" stroke="#DC2020" stroke-linecap="round" stroke-linejoin="round"/>
<path d="M22.3659 23.613L21.7561 26.7169L22.193 27.0173L24.8509 24.942L24.9419 22.8575L22.3659 23.613ZM16.0671 22.8575L16.14 24.942L18.7978 27.0173L19.2347 26.7169L18.634 23.613L16.0671 22.8575Z" fill="#C7000C" stroke="#C7000C" stroke-linecap="round" stroke-linejoin="round"/>
<path d="M22.4115 29.8754L22.4388 29.0289L22.2113 28.8286H18.7797L18.5703 29.0289L18.5885 29.8754L15.7213 28.5192L16.7226 29.3384L18.7524 30.7492H22.2386L24.2775 29.3384L25.2788 28.5192L22.4115 29.8754Z" fill="#C48A8A" stroke="#C48A8A" stroke-linecap="round" stroke-linejoin="round"/>
<path d="M22.193 27.0173L21.7561 26.7169H19.2348L18.7979 27.0173L18.5703 29.0289L18.7797 28.8287H22.2112L22.4388 29.0289L22.193 27.0173Z" fill="#161616" stroke="#161616" stroke-linecap="round" stroke-linejoin="round"/>
<path d="M31.3318 16.3949L32.1055 12.6811L30.9495 9.23132L22.193 15.7304L25.5609 18.5794L30.3214 19.9721L31.3773 18.7433L30.9222 18.4156L31.6503 17.7511L31.086 17.3142L31.8142 16.7589L31.3318 16.3949ZM8.89453 12.6811L9.66823 16.3949L9.1767 16.7589L9.90489 17.3142L9.34965 17.7511L10.0778 18.4156L9.62272 18.7433L10.6695 19.9721L15.43 18.5794L18.7979 15.7304L10.0414 9.23132L8.89453 12.6811Z" fill="#4D110C" stroke="#4D110C" stroke-linecap="round" stroke-linejoin="round"/>
<path d="M30.3214 19.9721L25.5609 18.5795L27.0082 20.7549L24.8509 24.942L27.6908 24.9056H31.9234L30.3214 19.9721ZM15.43 18.5795L10.6695 19.9721L9.08569 24.9056H13.3092L16.14 24.942L13.9918 20.7549L15.43 18.5795ZM21.8927 20.9825L22.193 15.7304L23.5766 11.9894H17.4325L18.7979 15.7304L19.1165 20.9825L19.2257 22.6391L19.2348 26.7169H21.7561L21.7743 22.6391L21.8927 20.9825Z" fill="#C7000C" stroke="#C7000C" stroke-linecap="round" stroke-linejoin="round"/>
</svg>
