<svg width="80" height="80" viewBox="0 0 80 80" fill="none" xmlns="http://www.w3.org/2000/svg">
<path d="M68.8261 8.91394L43.8418 27.4701L48.462 16.5222L68.8261 8.91394Z" fill="#A61D13" stroke="#A61D13" stroke-linecap="round" stroke-linejoin="round"/>
<path d="M11.1487 8.91394L35.9322 27.6459L31.5379 16.5222L11.1487 8.91394ZM59.8367 51.9271L53.1826 62.1217L67.4199 66.0389L71.5128 52.1531L59.8367 51.9271ZM8.51221 52.1531L12.58 66.0389L26.8173 62.1217L20.1632 51.9271L8.51221 52.1531Z" fill="#A61D13" stroke="#A61D13" stroke-linecap="round" stroke-linejoin="round"/>
<path d="M26.0137 34.7019L22.0464 40.7031L36.1832 41.3309L35.681 26.1394L26.0137 34.7019ZM53.961 34.7019L44.1682 25.9636L43.8417 41.3309L57.9535 40.7031L53.961 34.7019ZM26.8173 62.1218L35.3044 57.9787L27.9723 52.2536L26.8173 62.1218ZM44.6704 57.9787L53.1826 62.1218L52.0024 52.2536L44.6704 57.9787Z" fill="#A61D13" stroke="#A61D13" stroke-linecap="round" stroke-linejoin="round"/>
<path d="M53.1827 62.1218L44.6705 57.9786L45.3485 63.5279L45.2731 65.8631L53.1827 62.1218ZM26.8174 62.1218L34.727 65.8631L34.6768 63.5279L35.3045 57.9786L26.8174 62.1218Z" fill="#D7B3B3" stroke="#D7B3B3" stroke-linecap="round" stroke-linejoin="round"/>
<path d="M34.8525 48.5876L27.7715 46.5035L32.7683 44.2185L34.8525 48.5876ZM45.1224 48.5876L47.2065 44.2185L52.2285 46.5035L45.1224 48.5876Z" fill="#233447" stroke="#233447" stroke-linecap="round" stroke-linejoin="round"/>
<path d="M26.8174 62.1218L28.0227 51.9272L20.1633 52.1532L26.8174 62.1218ZM51.9775 51.9272L53.1828 62.1218L59.8369 52.1532L51.9775 51.9272ZM57.9537 40.7031L43.8419 41.3309L45.1476 48.5876L47.2318 44.2185L52.2537 46.5035L57.9537 40.7031ZM27.7716 46.5035L32.7936 44.2185L34.8526 48.5876L36.1834 41.3309L22.0466 40.7031L27.7716 46.5035Z" fill="#D31919" stroke="#D31919" stroke-linecap="round" stroke-linejoin="round"/>
<path d="M22.0464 40.7031L27.9723 52.2537L27.7714 46.5035L22.0464 40.7031ZM52.2535 46.5035L52.0024 52.2537L57.9535 40.7031L52.2535 46.5035ZM36.1832 41.3309L34.8524 48.5876L36.5097 57.1501L36.8863 45.8758L36.1832 41.3309ZM43.8417 41.3309L43.1638 45.8506L43.4651 57.1501L45.1475 48.5876L43.8417 41.3309Z" fill="#DC2020" stroke="#DC2020" stroke-linecap="round" stroke-linejoin="round"/>
<path d="M45.1475 48.5875L43.4651 57.15L44.6704 57.9786L52.0025 52.2536L52.2536 46.5034L45.1475 48.5875ZM27.7715 46.5034L27.9724 52.2536L35.3044 57.9786L36.5097 57.15L34.8525 48.5875L27.7715 46.5034Z" fill="#C7000C" stroke="#C7000C" stroke-linecap="round" stroke-linejoin="round"/>
<path d="M45.2731 65.8632L45.3485 63.528L44.7207 62.9756H35.2543L34.6768 63.528L34.727 65.8632L26.8174 62.1218L29.5795 64.3817L35.179 68.2737H44.796L50.4206 64.3817L53.1827 62.1218L45.2731 65.8632Z" fill="#C48A8A" stroke="#C48A8A" stroke-linecap="round" stroke-linejoin="round"/>
<path d="M44.6705 57.9786L43.4652 57.15H36.5098L35.3045 57.9786L34.6768 63.5279L35.2543 62.9755H44.7207L45.3484 63.5279L44.6705 57.9786Z" fill="#161616" stroke="#161616" stroke-linecap="round" stroke-linejoin="round"/>
<path d="M69.8806 28.6754L72.015 18.4306L68.826 8.91394L44.6704 26.8424L53.961 34.7018L67.0935 38.5436L70.0062 35.1537L68.7507 34.2498L70.7595 32.4168L69.2027 31.2115L71.2115 29.6798L69.8806 28.6754ZM7.98486 18.4306L10.1192 28.6754L8.76327 29.6798L10.7721 31.2115L9.24036 32.4168L11.2491 34.2498L9.99365 35.1537L12.8813 38.5436L26.0137 34.7018L35.3044 26.8424L11.1487 8.91394L7.98486 18.4306Z" fill="#4D110C" stroke="#4D110C" stroke-linecap="round" stroke-linejoin="round"/>
<path d="M67.0935 38.5437L53.961 34.7019L57.9535 40.7031L52.0025 52.2537L59.8367 52.1532H71.5128L67.0935 38.5437ZM26.0138 34.7019L12.8813 38.5437L8.51221 52.1532H20.1632L27.9723 52.2537L22.0464 40.7031L26.0138 34.7019ZM43.8418 41.3309L44.6704 26.8425L48.4871 16.5223H31.5379L35.3044 26.8425L36.1833 41.3309L36.4846 45.9009L36.5097 57.1501H43.4651L43.5153 45.9009L43.8418 41.3309Z" fill="#C7000C" stroke="#C7000C" stroke-linecap="round" stroke-linejoin="round"/>
</svg>
