<svg width="57" height="56" viewBox="0 0 57 56" fill="none" xmlns="http://www.w3.org/2000/svg">
<path d="M42.9021 18.0601C41.8786 17.4752 40.5627 17.4752 39.393 18.0601L31.205 22.8851L25.6488 25.9556L17.607 30.7807C16.5836 31.3655 15.2676 31.3655 14.0979 30.7807L7.81071 26.9791C6.78721 26.3943 6.05614 25.2245 6.05614 23.9086V16.5979C6.05614 15.4282 6.64099 14.2585 7.81071 13.5274L14.0979 9.87206C15.1214 9.28721 16.4373 9.28721 17.607 9.87206L23.8943 13.6736C24.9178 14.2585 25.6488 15.4282 25.6488 16.7441V21.5692L31.205 18.3525V13.3812C31.205 12.2115 30.6201 11.0418 29.4504 10.3107L17.7533 3.43864C16.7298 2.85379 15.4138 2.85379 14.2441 3.43864L2.25457 10.4569C1.08486 11.0418 0.5 12.2115 0.5 13.3812V27.1253C0.5 28.295 1.08486 29.4648 2.25457 30.1958L14.0979 37.0679C15.1214 37.6527 16.4373 37.6527 17.607 37.0679L25.6488 32.389L31.205 29.1723L39.2467 24.4935C40.2702 23.9086 41.5862 23.9086 42.7559 24.4935L49.0431 28.1488C50.0666 28.7337 50.7977 29.9034 50.7977 31.2193V38.53C50.7977 39.6997 50.2128 40.8695 49.0431 41.6005L42.9021 45.2559C41.8786 45.8407 40.5627 45.8407 39.393 45.2559L33.1057 41.6005C32.0822 41.0157 31.3512 39.846 31.3512 38.53V33.8512L25.795 37.0679V41.893C25.795 43.0627 26.3799 44.2324 27.5496 44.9635L39.393 51.8355C40.4165 52.4204 41.7324 52.4204 42.9021 51.8355L54.7454 44.9635C55.7689 44.3786 56.5 43.2089 56.5 41.893V28.0026C56.5 26.8329 55.9151 25.6632 54.7454 24.9321L42.9021 18.0601Z" fill="url(#paint0_linear_3199_552)"/>
<defs>
<linearGradient id="paint0_linear_3199_552" x1="0.5" y1="28.041" x2="65.7632" y2="28.041" gradientUnits="userSpaceOnUse">
<stop stop-color="#6D1812"/>
<stop offset="1" stop-color="#A61D13"/>
</linearGradient>
</defs>
</svg>
