<svg width="40" height="40" viewBox="0 0 40 40" fill="none" xmlns="http://www.w3.org/2000/svg">
<circle cx="20" cy="20" r="19.1697" fill="#070519" stroke="white" stroke-width="1.66058"/>
<g clip-path="url(#clip0_3205_23845)">
<path d="M26.6222 16.0335C26.1831 15.7826 25.6185 15.7826 25.1167 16.0335L21.6039 18.1035L19.2202 19.4208L15.7701 21.4909C15.331 21.7418 14.7664 21.7418 14.2646 21.4909L11.5672 19.8599C11.1281 19.609 10.8145 19.1072 10.8145 18.5426V15.4062C10.8145 14.9044 11.0654 14.4025 11.5672 14.0889L14.2646 12.5207C14.7037 12.2697 15.2683 12.2697 15.7701 12.5207L18.4674 14.1516C18.9065 14.4025 19.2202 14.9044 19.2202 15.4689V17.539L21.6039 16.1589V14.0261C21.6039 13.5243 21.353 13.0225 20.8511 12.7088L15.8328 9.76057C15.3937 9.50966 14.8291 9.50966 14.3273 9.76057L9.18353 12.7716C8.6817 13.0225 8.43079 13.5243 8.43079 14.0261V19.9227C8.43079 20.4245 8.6817 20.9263 9.18353 21.24L14.2646 24.1883C14.7037 24.4392 15.2683 24.4392 15.7701 24.1883L19.2202 22.1809L21.6039 20.8009L25.054 18.7936C25.4931 18.5426 26.0576 18.5426 26.5595 18.7936L29.2568 20.3618C29.6959 20.6127 30.0096 21.1145 30.0096 21.6791V24.8155C30.0096 25.3174 29.7587 25.8192 29.2568 26.1329L26.6222 27.7011C26.1831 27.952 25.6185 27.952 25.1167 27.7011L22.4194 26.1329C21.9803 25.8819 21.6666 25.3801 21.6666 24.8155V22.8082L19.2829 24.1883V26.2583C19.2829 26.7601 19.5338 27.262 20.0357 27.5756L25.1167 30.5239C25.5558 30.7748 26.1204 30.7748 26.6222 30.5239L31.7033 27.5756C32.1424 27.3247 32.456 26.8229 32.456 26.2583V20.2991C32.456 19.7972 32.2051 19.2954 31.7033 18.9817L26.6222 16.0335Z" fill="url(#paint0_linear_3205_23845)"/>
</g>
<defs>
<linearGradient id="paint0_linear_3205_23845" x1="8.43079" y1="20.3155" x2="36.4301" y2="20.3155" gradientUnits="userSpaceOnUse">
<stop stop-color="#6D1812"/>
<stop offset="1" stop-color="#A61D13"/>
</linearGradient>
<clipPath id="clip0_3205_23845">
<rect width="24.0879" height="21.0142" fill="white" transform="translate(8.43079 9.63513)"/>
</clipPath>
</defs>
</svg>
