<svg width="39" height="39" viewBox="0 0 39 39" fill="none" xmlns="http://www.w3.org/2000/svg">
<circle cx="19.5" cy="19.5" r="19.5" fill="black" fill-opacity="0.68"/>
<path d="M7.99831 23V15.7273H9.53596V21.7322H12.6539V23H7.99831ZM16.1082 23.1065C15.5566 23.1065 15.0796 22.9893 14.6771 22.755C14.277 22.5182 13.9681 22.1892 13.7503 21.7678C13.5325 21.344 13.4236 20.8527 13.4236 20.294C13.4236 19.7306 13.5325 19.2382 13.7503 18.8168C13.9681 18.393 14.277 18.0639 14.6771 17.8295C15.0796 17.5928 15.5566 17.4744 16.1082 17.4744C16.6598 17.4744 17.1357 17.5928 17.5358 17.8295C17.9382 18.0639 18.2484 18.393 18.4662 18.8168C18.684 19.2382 18.7929 19.7306 18.7929 20.294C18.7929 20.8527 18.684 21.344 18.4662 21.7678C18.2484 22.1892 17.9382 22.5182 17.5358 22.755C17.1357 22.9893 16.6598 23.1065 16.1082 23.1065ZM16.1153 21.9347C16.3663 21.9347 16.5758 21.8636 16.7439 21.7216C16.912 21.5772 17.0386 21.3807 17.1238 21.1321C17.2114 20.8835 17.2552 20.6006 17.2552 20.2834C17.2552 19.9661 17.2114 19.6832 17.1238 19.4347C17.0386 19.1861 16.912 18.9896 16.7439 18.8452C16.5758 18.7008 16.3663 18.6286 16.1153 18.6286C15.862 18.6286 15.6489 18.7008 15.4761 18.8452C15.3057 18.9896 15.1766 19.1861 15.089 19.4347C15.0038 19.6832 14.9612 19.9661 14.9612 20.2834C14.9612 20.6006 15.0038 20.8835 15.089 21.1321C15.1766 21.3807 15.3057 21.5772 15.4761 21.7216C15.6489 21.8636 15.862 21.9347 16.1153 21.9347ZM22.2339 25.1591C21.7439 25.1591 21.3237 25.0916 20.9733 24.9567C20.6253 24.8241 20.3483 24.643 20.1423 24.4134C19.9363 24.1837 19.8026 23.9257 19.741 23.6392L21.1402 23.451C21.1828 23.5599 21.2503 23.6617 21.3426 23.7564C21.4349 23.8511 21.5568 23.9268 21.7084 23.9837C21.8622 24.0429 22.0493 24.0724 22.2694 24.0724C22.5985 24.0724 22.8696 23.992 23.0827 23.831C23.2981 23.6723 23.4058 23.406 23.4058 23.032V22.0341H23.3419C23.2756 22.1856 23.1762 22.3288 23.0436 22.4638C22.911 22.5987 22.7406 22.7088 22.5322 22.794C22.3239 22.8793 22.0753 22.9219 21.7865 22.9219C21.3769 22.9219 21.0041 22.8272 20.6679 22.6378C20.3341 22.446 20.0677 22.1536 19.8689 21.7607C19.6724 21.3653 19.5741 20.8658 19.5741 20.2621C19.5741 19.6442 19.6747 19.1281 19.876 18.7138C20.0772 18.2995 20.3447 17.9893 20.6785 17.7834C21.0147 17.5774 21.3828 17.4744 21.7829 17.4744C22.0883 17.4744 22.344 17.5265 22.55 17.6307C22.7559 17.7325 22.9217 17.8603 23.0471 18.0142C23.175 18.1657 23.2732 18.3149 23.3419 18.4616H23.3987V17.5455H24.9008V23.0533C24.9008 23.5173 24.7872 23.9055 24.5599 24.218C24.3327 24.5305 24.0178 24.7649 23.6153 24.9212C23.2152 25.0798 22.7548 25.1591 22.2339 25.1591ZM22.2659 21.7855C22.5097 21.7855 22.7157 21.7251 22.8838 21.6044C23.0542 21.4813 23.1845 21.3061 23.2744 21.0788C23.3667 20.8492 23.4129 20.5746 23.4129 20.255C23.4129 19.9354 23.3679 19.6584 23.278 19.424C23.188 19.1873 23.0578 19.0038 22.8873 18.8736C22.7169 18.7434 22.5097 18.6783 22.2659 18.6783C22.0173 18.6783 21.8078 18.7457 21.6373 18.8807C21.4669 19.0133 21.3379 19.1979 21.2503 19.4347C21.1627 19.6714 21.1189 19.9448 21.1189 20.255C21.1189 20.5698 21.1627 20.8421 21.2503 21.0717C21.3402 21.299 21.4693 21.4754 21.6373 21.6009C21.8078 21.724 22.0173 21.7855 22.2659 21.7855ZM28.5692 23.1065C28.0175 23.1065 27.5405 22.9893 27.1381 22.755C26.738 22.5182 26.429 22.1892 26.2112 21.7678C25.9934 21.344 25.8845 20.8527 25.8845 20.294C25.8845 19.7306 25.9934 19.2382 26.2112 18.8168C26.429 18.393 26.738 18.0639 27.1381 17.8295C27.5405 17.5928 28.0175 17.4744 28.5692 17.4744C29.1208 17.4744 29.5966 17.5928 29.9967 17.8295C30.3992 18.0639 30.7093 18.393 30.9271 18.8168C31.1449 19.2382 31.2538 19.7306 31.2538 20.294C31.2538 20.8527 31.1449 21.344 30.9271 21.7678C30.7093 22.1892 30.3992 22.5182 29.9967 22.755C29.5966 22.9893 29.1208 23.1065 28.5692 23.1065ZM28.5763 21.9347C28.8272 21.9347 29.0367 21.8636 29.2048 21.7216C29.3729 21.5772 29.4996 21.3807 29.5848 21.1321C29.6724 20.8835 29.7162 20.6006 29.7162 20.2834C29.7162 19.9661 29.6724 19.6832 29.5848 19.4347C29.4996 19.1861 29.3729 18.9896 29.2048 18.8452C29.0367 18.7008 28.8272 18.6286 28.5763 18.6286C28.3229 18.6286 28.1099 18.7008 27.9371 18.8452C27.7666 18.9896 27.6376 19.1861 27.55 19.4347C27.4648 19.6832 27.4221 19.9661 27.4221 20.2834C27.4221 20.6006 27.4648 20.8835 27.55 21.1321C27.6376 21.3807 27.7666 21.5772 27.9371 21.7216C28.1099 21.8636 28.3229 21.9347 28.5763 21.9347Z" fill="white"/>
</svg>
